<svg width="200" height="200" viewBox="0 0 200 200" fill="none" xmlns="http://www.w3.org/2000/svg">
<path d="M200 0H0V200H200V0Z" fill="white"/>
<path fill-rule="evenodd" clip-rule="evenodd" d="M107.992 173.561C143.885 173.561 148.973 157.593 154.416 154.659C159.858 151.724 156.474 145.836 160.044 141.394C165.745 134.3 169.2 137.956 171.087 128.752C172.974 119.549 169.544 116.945 169.544 108.728C169.544 92.265 177.43 84.4719 167.359 75.858C157.288 67.2444 140.47 68.2607 123.836 68.2607C92.9626 68.2607 74.4669 25.9378 33.2887 38.6351C19.098 43.0111 20.6664 48.974 23.7845 70.0479C25.1386 79.1988 14.9151 90.8338 16.6889 101.233C19.9286 120.227 28.4847 117.65 44.6282 130.474C47.3365 132.625 51.2866 132.603 54.2391 134.809C59.1893 138.509 59.5074 144.261 68.7615 148.14C83.6834 154.396 82.4175 173.561 107.992 173.561Z" fill="#36C6E8"/>
<path d="M39.3754 133.067C44.3872 133.067 48.45 129.246 48.45 124.533C48.45 119.821 44.3872 116 39.3754 116C34.3636 116 30.3008 119.821 30.3008 124.533C30.3008 129.246 34.3636 133.067 39.3754 133.067Z" fill="white"/>
<path fill-rule="evenodd" clip-rule="evenodd" d="M35.8165 94.1084C34.2696 90.2449 35.621 87.9303 36.4872 84.9084C37.2106 82.3844 42.869 78.2841 45.473 82.5593C46.2392 83.8172 45.9317 85.006 47.6061 86.1113C51.6594 88.7873 49.4482 83.2359 49.5989 81.8324C49.6725 81.1479 49.0941 79.5689 49.3093 78.9084C49.5354 78.2151 50.7397 77.2303 50.7397 75.7932C50.7397 74.3564 48.2901 73.8028 47.6061 73.4497C41.5293 70.3124 37.6648 65.0719 39.5906 62.4124C42.2741 58.7068 52.7901 64.5369 55.9501 65.0719C55.9909 65.0788 56.5552 62.1329 57.0162 61.4583C57.9384 60.1087 58.9576 58.7985 60.1736 57.706C60.7181 57.2167 61.4562 56.9145 62.1821 56.8167C64.3536 56.5236 66.5752 56.2833 68.7504 56.5487C69.5189 56.6425 74.0962 51.3449 75.881 49.6361C89.5744 36.5255 117.024 52.5023 102.062 74.2121C99.3114 78.2023 95.7949 79.4711 95.3405 80.8815C94.3317 84.014 100.683 83.602 103.373 83.9367C107.969 84.5084 110.234 86.8692 107.381 90.9156C105.603 93.4364 95.1768 93.3079 90.6096 91.4849C88.9144 90.8084 86.8194 87.85 85.2173 90.2769C84.1133 91.9489 79.809 95.4961 75.192 97.5028C73.108 98.4087 70.7341 97.8628 68.9557 98.6716C66.4525 99.8103 59.0624 104.591 55.9501 104.589C52.8154 104.588 48.7592 100.816 48.2901 100.569C47.5746 100.192 42.0416 99.1105 39.308 94.8924C38.4816 93.6169 36.3829 95.5228 35.8165 94.1084Z" fill="white"/>
<path d="M89.0384 72.6588C89.5693 72.6588 89.9997 72.2345 89.9997 71.7112C89.9997 71.1879 89.5693 70.7637 89.0384 70.7637C88.5075 70.7637 88.0771 71.1879 88.0771 71.7112C88.0771 72.2345 88.5075 72.6588 89.0384 72.6588Z" fill="#FFB61D"/>
<path d="M81.9997 70.6665C82.5152 70.6665 82.9331 70.2486 82.9331 69.7331C82.9331 69.2177 82.5152 68.7998 81.9997 68.7998C81.4843 68.7998 81.0664 69.2177 81.0664 69.7331C81.0664 70.2486 81.4843 70.6665 81.9997 70.6665Z" fill="#FFB61D"/>
<path d="M150 81.5999C156.995 81.5999 162.666 75.9289 162.666 68.9333C162.666 61.9377 156.995 56.2666 150 56.2666C143.004 56.2666 137.333 61.9377 137.333 68.9333C137.333 75.9289 143.004 81.5999 150 81.5999Z" fill="white"/>
<path d="M110.394 172.251C130.721 172.251 147.2 158.167 147.2 140.792C147.2 123.418 130.721 109.333 110.394 109.333C90.0658 109.333 73.5869 123.418 73.5869 140.792C73.5869 158.167 90.0658 172.251 110.394 172.251Z" fill="white"/>
<path fill-rule="evenodd" clip-rule="evenodd" d="M79.1903 157.945L79.6033 158.244C78.6708 159.081 77.2684 158.041 76.482 157.066C75.2175 155.498 73.9343 153.832 73.5495 151.854C73.3305 150.729 73.418 149.57 73.5065 148.428L73.8633 143.82C74.0212 141.778 74.1799 139.733 74.5332 137.716C75.4897 132.257 77.8977 127.059 81.4431 122.799L81.4785 122.756C82.1047 122.004 82.7884 121.183 82.7764 120.208C82.7508 118.146 83.9385 116.218 85.4983 114.868C87.0577 113.518 88.9673 112.652 90.8476 111.804C91.6993 111.42 92.8116 111.075 93.4719 111.737C94.8297 113.097 97.0959 112.23 98.8895 111.54C101.092 110.691 103.444 110.234 105.803 110.196C105.872 110.195 105.941 110.194 106.011 110.193C107.428 110.173 109.022 110.15 109.886 109.053C110.437 108.354 111.489 108.394 112.372 108.5L118.447 109.226C118.911 109.282 119.467 109.409 119.613 109.853C120.006 111.043 121.39 111.529 122.59 111.891C126.857 113.177 131.027 114.924 134.649 117.52C138.271 120.115 141.333 123.607 142.957 127.757C140.316 124.147 137.607 120.469 133.941 117.905C132.892 117.172 131.776 116.538 130.644 115.941C127.971 114.532 125.189 113.318 122.3 112.436C108.885 108.341 93.3668 112.138 83.3588 121.965C81.9079 123.39 80.5473 124.96 79.7241 126.819L80.8113 127.157C79.0884 127.927 77.8084 129.614 77.5316 131.481C78.2249 130.293 79.2132 129.279 80.3828 128.556C80.0481 129.674 79.1775 130.572 78.3241 131.453C77.2364 132.576 76.1767 133.669 76.2889 135.153C76.8055 133.797 78.1063 132.774 79.5452 132.592C77.2631 134.822 74.814 137.439 74.8868 140.629C75.7193 138.786 77.1327 137.212 78.8748 136.187L76.3668 139.557C75.4185 140.832 74.4196 142.288 74.6364 143.862C75.4615 142.381 76.6412 141.1 78.0487 140.155C77.3711 141.697 76.4033 143.11 75.2113 144.299C76.3447 144.162 77.4361 143.693 78.3151 142.964C77.9465 143.478 77.6145 144.059 77.6023 144.692C77.5897 145.324 77.9996 146.003 78.6257 146.094C78.8153 145.67 79.4097 145.491 79.8017 145.74C78.6135 146.896 78.6012 149.038 79.7761 150.208C79.8807 149.658 80.3444 149.194 80.894 149.09C80.0177 150.623 79.8601 152.547 80.4756 154.201C80.6617 153.264 81.182 152.397 81.9209 151.791C81.4948 154.014 80.5529 156.137 79.1903 157.945ZM78.6711 157.237C79.4129 157.229 79.8745 156.399 79.9519 155.661C80.0444 154.778 79.8252 153.896 79.6076 153.036L78.3169 147.931C78.074 148.008 78.0457 148.272 78.0164 148.549C77.9911 148.785 77.9649 149.03 77.8033 149.176C77.4767 148.77 77.4396 148.155 77.7151 147.712C77.9932 147.265 77.8111 146.64 77.4167 146.292C77.022 145.943 76.4732 145.825 75.9471 145.808C75.6628 145.798 75.3604 145.82 75.1279 145.984C74.8951 146.148 74.7727 146.496 74.938 146.727C75.43 147.416 75.7999 148.192 76.026 149.008C76.0428 149.069 76.0591 149.131 76.0756 149.193C76.1879 149.617 76.3036 150.052 76.6135 150.354C76.8529 150.588 76.914 150.944 76.9628 151.275L77.3572 153.957C77.4289 154.445 77.5007 154.943 77.4185 155.43C77.3364 155.916 77.0735 156.399 76.6321 156.62L78.0415 157.099C78.2457 157.169 78.4551 157.239 78.6711 157.237ZM94.0321 113.272C93.7545 113.331 93.5217 113.087 93.3228 112.878L93.3001 112.854C93.0961 112.641 92.746 112.456 92.5313 112.658C90.03 115.011 87.1836 116.997 84.1116 118.532C83.554 118.81 83.4791 119.561 83.4788 120.185C83.4785 120.393 83.678 120.685 83.8079 120.522C84.4412 119.729 85.2649 119.112 86.0791 118.505C88.37 116.797 90.6881 115.074 93.3143 113.948C93.6329 113.811 94.006 113.618 94.0321 113.272ZM119.172 110.625C119.03 110.293 118.627 110.173 118.272 110.106C117.304 109.924 116.318 109.841 115.334 109.758C113.982 109.645 112.632 109.532 111.331 109.161C110.914 109.042 110.557 109.464 110.329 109.832C111.015 109.761 111.704 109.731 112.394 109.744C113.593 109.766 114.787 109.916 115.977 110.065C116.582 110.141 117.191 110.217 117.771 110.405C117.839 110.427 117.907 110.45 117.975 110.474C118.372 110.61 118.781 110.75 119.172 110.625ZM106.366 115.738C106.64 115.801 106.901 116.006 106.942 116.284C106.983 116.562 106.793 116.832 106.551 116.973C106.309 117.115 106.023 117.154 105.744 117.191L104.907 117.302C104.823 117.313 104.737 117.325 104.664 117.368C104.454 117.493 104.468 117.83 104.64 118.004C104.812 118.178 105.076 118.221 105.321 118.221C106.459 118.218 107.537 117.399 107.885 116.315C107.968 116.057 108.012 115.771 107.909 115.521C107.857 115.394 107.771 115.284 107.674 115.186C107.226 114.732 106.559 114.532 105.923 114.577C105.287 114.622 104.682 114.893 104.164 115.265C103.916 115.444 103.68 115.653 103.539 115.924C103.398 116.195 103.368 116.54 103.526 116.801C103.586 116.901 103.679 116.989 103.794 117.008C103.909 117.027 104.041 116.953 104.056 116.837C104.096 116.516 104.33 116.244 104.61 116.08C104.89 115.917 105.212 115.845 105.53 115.781C105.806 115.726 106.092 115.676 106.366 115.738ZM83.9249 131.645C84.2377 129.794 85.7327 128.289 87.4753 127.592C88.4356 127.208 89.5345 127.04 90.5004 127.41C90.7388 127.501 90.9695 127.627 91.1412 127.816C91.3025 127.993 91.4041 128.217 91.4807 128.444C91.9713 129.9 91.4735 131.583 90.4193 132.7C89.3652 133.817 87.8303 134.402 86.2985 134.512C85.8076 134.548 85.2807 134.528 84.8753 134.249C84.47 133.97 84.2689 133.35 84.5809 132.97C84.7284 132.977 84.8081 133.109 84.8895 133.243C84.9297 133.31 84.9705 133.378 85.0204 133.431C85.1905 133.614 85.4719 133.628 85.7215 133.617C86.8079 133.571 87.9105 133.302 88.7945 132.669C89.6785 132.037 90.314 131.004 90.2953 129.916C90.2892 129.566 90.2132 129.208 90.0148 128.919C89.6889 128.445 89.0732 128.232 88.4993 128.269C87.9257 128.307 87.3879 128.562 86.8993 128.865C86.2564 129.264 85.6623 129.765 85.2593 130.406C84.8564 131.046 84.6593 131.838 84.8297 132.575C84.6791 132.846 84.2316 132.792 84.0465 132.543C83.8615 132.293 83.8732 131.951 83.9249 131.645ZM93.9284 146.898C93.1337 147.41 92.4748 148.21 92.3521 149.147C92.2529 149.905 92.5071 150.66 92.7575 151.382C92.9529 151.946 93.1548 152.522 93.5271 152.988C94.1993 153.831 95.3124 154.179 96.3764 154.35C96.6663 154.397 97.1057 154.266 97.0025 153.991C95.8791 153.971 94.7743 153.45 94.0431 152.597C93.3121 151.744 92.9668 150.572 93.1185 149.459C93.1503 149.225 93.2039 148.992 93.302 148.777C93.5012 148.342 93.8721 148.007 94.2737 147.748C95.1383 147.189 96.1908 146.928 97.2164 147.016C98.2049 147.101 99.1927 147.535 99.7964 148.322C100.4 149.11 100.544 150.272 100.011 151.11C99.9247 151.246 99.8615 151.487 100.02 151.515C100.877 151.053 101.353 150.034 101.305 149.062C101.257 148.089 100.744 147.178 100.038 146.507C99.6476 146.136 99.1852 145.822 98.6615 145.696C97.9711 145.53 97.2487 145.702 96.562 145.882C95.6479 146.123 94.7231 146.387 93.9284 146.898ZM132.957 148.106C130.084 147.034 126.961 146.634 123.91 146.948C122.63 147.08 121.347 147.341 120.196 147.916C118.026 149.002 116.474 151.238 116.216 153.652C115.958 156.065 117.001 158.579 118.893 160.1C119.61 160.676 120.424 161.108 121.24 161.54C121.796 161.836 122.353 162.131 122.88 162.473C123.031 162.617 122.692 162.76 122.494 162.696C120.651 162.101 118.861 161.197 117.546 159.774C115.947 158.044 115.166 155.587 115.475 153.251C115.783 150.915 117.175 148.745 119.168 147.489C120.745 146.496 122.631 146.078 124.493 146.01C126.356 145.943 128.213 146.209 130.055 146.495C131.205 146.673 132.554 147.015 132.957 148.106ZM102.72 151.707C102.589 151.408 102.065 151.33 101.969 151.642C101.359 153.626 99.4236 155.126 97.3505 155.221C96.882 155.242 96.4129 155.199 95.946 155.154C94.9404 155.056 93.9033 154.941 93.0228 154.446C91.7564 153.734 90.9943 152.272 90.9855 150.82C90.9764 149.367 91.6655 147.955 92.7119 146.947C92.5665 146.54 91.9431 146.737 91.6335 147.038C89.9172 148.706 89.6228 151.585 90.8271 153.653C92.0311 155.721 94.5545 156.88 96.9332 156.617C99.3119 156.354 101.459 154.762 102.565 152.64C102.716 152.35 102.851 152.006 102.72 151.707ZM87.8244 161.753C87.4369 163.238 87.4001 164.815 87.7177 166.317C87.8604 166.991 87.8759 167.362 87.8788 167.432C87.8791 167.44 87.8793 167.444 87.8796 167.444C87.8796 167.444 87.8799 167.44 87.8801 167.432C87.8833 167.362 87.9001 166.989 88.046 166.314C88.3711 164.809 88.2937 163.219 87.8244 161.753ZM89.8831 162.651C89.3324 163.805 89.4007 165.233 90.0588 166.329C90.2065 166.575 90.3188 166.776 90.4015 166.923C90.5127 167.122 90.5708 167.225 90.5911 167.218C90.6129 167.211 90.5895 167.072 90.5407 166.781C90.5212 166.664 90.4975 166.522 90.4708 166.355L89.8831 162.651ZM91.4329 164.125C91.1993 164.861 91.3713 165.713 91.8724 166.302C92.3839 166.903 92.5511 167.095 92.3951 166.322C92.2361 165.532 91.9055 164.777 91.4329 164.125ZM136.288 155.745C135.585 158.566 133.34 160.704 131.164 162.632C131.263 162.846 131.585 162.77 131.791 162.654C133.996 161.413 135.78 159.39 136.594 156.995C137.408 154.599 137.205 151.847 135.92 149.667C135.812 149.484 135.675 149.29 135.467 149.249C135.258 149.208 135.018 149.45 135.141 149.623C136.376 151.372 136.806 153.667 136.288 155.745ZM104.589 130.269C104.583 129.822 104.589 129.339 104.859 128.984C105.23 128.494 105.934 128.442 106.549 128.434C106.823 128.43 107.101 128.426 107.368 128.49C107.936 128.625 108.388 129.044 108.792 129.467C108.881 129.56 108.976 129.676 108.954 129.803C108.927 129.961 108.729 130.034 108.571 130.001C108.467 129.98 108.373 129.928 108.279 129.876H108.279C108.232 129.85 108.184 129.823 108.136 129.801C107.571 129.542 106.907 129.826 106.399 130.185C106.319 130.241 106.233 130.314 106.231 130.412C106.229 130.51 106.313 130.586 106.392 130.644C107.078 131.146 107.956 131.379 108.801 131.282C109.003 131.259 109.24 131.185 109.293 130.988C109.313 130.912 109.305 130.821 109.297 130.734C109.285 130.588 109.272 130.451 109.395 130.4C109.459 130.374 109.532 130.393 109.598 130.412C110.055 130.545 110.589 130.759 110.678 131.226C110.704 131.362 110.685 131.502 110.642 131.633C110.516 132.016 110.165 132.314 109.768 132.377C109.591 132.405 109.411 132.39 109.233 132.375C108.768 132.335 108.302 132.295 107.841 132.221C106.995 132.084 106.167 131.832 105.388 131.473C105.118 131.349 104.837 131.196 104.7 130.932C104.596 130.731 104.591 130.495 104.589 130.269ZM121.975 119.262C121.703 118.527 121.045 117.946 120.282 117.768C120.046 117.712 119.779 117.699 119.579 117.836C119.378 117.973 119.309 118.306 119.5 118.456C119.686 118.601 119.574 118.942 119.348 119.006C119.121 119.071 118.878 118.917 118.765 118.711C118.652 118.505 118.64 118.26 118.638 118.024C118.637 117.71 118.665 117.36 118.897 117.149C118.985 117.068 119.096 117.016 119.205 116.967C119.657 116.765 120.156 116.594 120.639 116.702C121.099 116.806 121.466 117.145 121.787 117.491C122.05 117.774 122.299 118.071 122.532 118.379C122.738 118.651 122.936 118.941 123.013 119.273C123.09 119.605 123.024 119.99 122.767 120.214C122.516 120.434 122.13 120.453 121.825 120.317C121.556 120.197 121.327 119.933 121.347 119.64C121.367 119.345 121.728 119.102 121.975 119.262ZM124.403 139.937C125.078 139.917 125.707 139.397 125.852 138.738C125.941 138.337 125.832 137.861 125.482 137.645C125.227 137.488 124.906 137.499 124.607 137.518C124.192 137.545 123.762 137.581 123.402 137.788C123.042 137.995 122.775 138.424 122.887 138.823C123.071 139.473 123.728 139.956 124.403 139.937ZM124.489 138.963C124.359 138.998 124.173 138.964 124.161 138.83C124.156 138.774 124.187 138.721 124.221 138.676C124.413 138.428 124.778 138.332 125.067 138.453C124.967 138.699 124.747 138.894 124.489 138.963ZM124.838 128.977C124.728 128.724 124.941 128.428 125.2 128.331C125.407 128.253 125.632 128.261 125.856 128.269C125.911 128.271 125.967 128.273 126.021 128.274C126.298 128.277 126.603 128.231 126.783 128.021C126.846 127.946 126.889 127.837 126.841 127.753C126.79 127.664 126.671 127.649 126.57 127.644C125.865 127.607 125.033 127.629 124.627 128.205C124.54 128.33 124.326 128.288 124.244 128.16C124.163 128.032 124.181 127.864 124.228 127.72C124.394 127.203 124.872 126.827 125.393 126.676C125.915 126.526 126.475 126.573 127.005 126.693C127.184 126.733 127.369 126.787 127.499 126.915C127.603 127.017 127.661 127.157 127.699 127.297C127.879 127.968 127.612 128.736 127.056 129.151C126.499 129.566 125.687 129.602 125.095 129.237C124.99 129.172 124.887 129.091 124.838 128.977ZM122.423 140.828C122.751 141.22 123.138 141.576 123.608 141.776C124.558 142.179 125.773 141.806 126.333 140.94C126.537 140.624 126.628 140.142 126.327 139.918C125.843 140.934 124.441 141.383 123.458 140.836C123.269 140.732 123.098 140.598 122.942 140.449C122.235 139.772 121.866 138.666 122.281 137.779C122.416 137.49 122.624 137.24 122.851 137.016C123.347 136.527 124.055 136.126 124.717 136.344C124.744 136.353 124.772 136.363 124.799 136.373C124.892 136.407 124.985 136.441 125.082 136.436C125.208 136.428 125.34 136.316 125.308 136.193C125.298 136.157 125.276 136.126 125.252 136.096C124.844 135.576 124.041 135.415 123.463 135.738C122.776 136.122 122.077 136.574 121.711 137.272C121.115 138.408 121.601 139.843 122.423 140.828ZM133.379 123.307C133.349 123.351 133.356 123.411 133.364 123.469C133.372 123.537 133.38 123.602 133.324 123.63C133.118 123.732 132.872 123.721 132.652 123.654C132.053 123.47 131.651 122.92 131.312 122.393C131.114 122.085 130.917 121.758 130.885 121.392C130.853 121.027 131.04 120.616 131.391 120.513C131.783 120.398 132.168 120.69 132.473 120.961C132.817 121.268 133.169 121.584 133.382 121.992C133.595 122.401 133.642 122.929 133.379 123.307ZM132.076 121.94C132.161 122.022 132.207 122.132 132.253 122.242C132.299 122.351 132.345 122.46 132.427 122.542C132.531 122.646 132.689 122.692 132.833 122.661C132.563 122.245 132.251 121.855 131.903 121.502C131.81 121.53 131.802 121.668 131.858 121.748C131.892 121.796 131.94 121.831 131.987 121.867C132.018 121.89 132.049 121.913 132.076 121.94ZM80.7937 159.602C80.7604 160.149 80.8023 160.783 81.2401 161.112C81.386 161.031 81.3761 160.822 81.3577 160.656C81.2447 159.634 81.562 158.648 81.8815 157.656C82.11 156.946 82.3396 156.232 82.4132 155.5C82.4348 155.287 82.378 154.996 82.1644 154.988C82.0044 154.982 81.9012 155.15 81.8367 155.297C81.2388 156.655 80.8836 158.12 80.7937 159.602ZM123.265 139.872C123.759 140.09 124.307 140.313 124.824 140.156C125.029 140.094 125.212 139.975 125.392 139.858C125.391 140.16 125.132 140.414 124.842 140.5C124.552 140.586 124.241 140.54 123.946 140.476C123.618 140.405 123.217 140.204 123.265 139.872ZM84.1881 165.089C84.314 164.865 84.3356 164.598 84.3543 164.342L84.5033 162.297C84.5764 161.293 84.6497 160.285 84.5841 159.281C84.5759 159.154 84.5631 159.021 84.4892 158.918C84.4153 158.814 84.2591 158.759 84.1577 158.836C84.0833 158.892 84.0647 158.994 84.0516 159.087C83.8897 160.248 83.8033 161.42 83.7929 162.592C83.7852 163.442 83.8241 164.321 84.1881 165.089ZM81.9524 163.332C81.8215 163.442 81.6033 163.345 81.5311 163.189C81.4591 163.034 81.4881 162.852 81.5191 162.684C81.8428 160.918 82.21 159.161 82.6201 157.414C82.6303 157.37 82.6415 157.325 82.6697 157.29C82.7777 157.156 82.9961 157.291 83.0727 157.444C83.2607 157.821 83.1705 158.271 83.0767 158.681L82.0655 163.091C82.0455 163.179 82.0215 163.273 81.9524 163.332ZM85.4543 163.41C85.3977 164.072 85.4972 164.736 85.5961 165.393C85.6313 165.627 85.7999 165.938 86.0111 165.832L86.4231 161.427C86.4399 161.248 86.4511 161.049 86.3401 160.907C86.2289 160.766 85.9476 160.772 85.9121 160.948L85.6084 162.458C85.5449 162.774 85.4815 163.09 85.4543 163.41ZM127.992 149.909C126.819 149.305 125.392 149.067 124.173 149.573C123.264 149.951 120.692 151.583 120.349 153.675C120.12 155.075 120.123 156.506 120.613 157.858L120.692 158.07C120.838 158.453 121.303 158.893 121.563 158.576C120.804 157.204 120.662 155.505 121.183 154.025C121.704 152.546 122.88 151.311 124.331 150.717C124.637 150.592 124.956 150.494 125.284 150.463C125.949 150.4 126.612 150.616 127.206 150.92C128.485 151.575 130.069 152.665 130.678 153.966C131.265 155.221 131.697 156.718 131.166 157.997C130.635 159.277 127.146 160.202 127.146 160.202L127.532 160.907C127.532 160.907 129.485 160.521 130.678 159.653C135.685 156.006 129.114 150.487 127.992 149.909Z" fill="#00160A"/>
<path fill-rule="evenodd" clip-rule="evenodd" d="M39.4806 131.903C37.7096 132.093 35.8342 131.683 34.4515 130.561C33.4723 129.766 32.7843 128.66 32.3014 127.494C31.7771 126.229 31.4758 124.872 31.4152 123.504C31.3923 122.989 31.4046 122.464 31.556 121.971C31.8051 121.16 32.4051 120.509 33.0174 119.922C34.3203 118.673 35.8518 117.532 37.6376 117.27C38.8547 117.091 40.0926 117.335 41.2838 117.641C42.2195 117.882 43.1539 118.166 43.9952 118.64C45.855 119.689 47.1435 121.689 47.3299 123.815C47.5163 125.942 47.287 127.351 44.4171 129.993C42.9259 130.967 41.2515 131.713 39.4806 131.903ZM42.6035 125.228C42.3163 125.318 42.0299 125.478 41.7334 125.426C41.1278 125.32 41.0192 124.488 41.1536 123.888C41.5387 122.17 42.7363 120.653 44.3179 119.879C43.9598 119.23 43.0088 119.182 42.336 119.494C41.6635 119.807 41.1376 120.369 40.4872 120.725C40.1635 120.902 39.7798 121.028 39.4278 120.917C38.848 120.736 38.627 119.977 38.8166 119.4C39.0064 118.823 39.4798 118.393 39.9344 117.99C38.2872 118.048 36.6571 118.542 35.2552 119.409C34.1576 120.088 33.1166 121.201 33.2624 122.483C34.1696 121.753 35.235 121.22 36.3635 120.932C36.603 120.87 36.9035 120.84 37.0534 121.036C37.1667 121.185 37.1342 121.399 37.0614 121.571C36.7006 122.427 35.6398 122.714 34.9819 123.369C34.8955 123.455 34.8126 123.554 34.7918 123.675C34.7507 123.91 34.975 124.124 35.2107 124.164C35.4464 124.203 35.683 124.117 35.9064 124.033C36.3707 123.858 36.835 123.683 37.2992 123.508C37.6355 123.381 38.0344 123.26 38.3334 123.459C38.6424 123.665 38.6715 124.134 38.4968 124.462C38.3222 124.79 38.0014 125.01 37.6926 125.217C36.9486 125.715 36.2046 126.214 35.4606 126.713C34.8376 127.13 34.1398 127.693 34.199 128.441C34.2547 129.144 35.0288 129.623 35.7331 129.577C36.4376 129.532 37.0576 129.101 37.5776 128.624C38.0974 128.147 38.5667 127.601 39.1704 127.236C39.5646 126.997 40.1267 126.864 40.4467 127.196C40.6939 127.452 40.6702 127.863 40.5774 128.207C40.3099 129.197 39.5867 130.054 38.6555 130.484C39.4131 130.659 40.2032 130.692 40.9726 130.581C41.4115 130.518 41.8656 130.396 42.183 130.087C42.5003 129.777 42.6232 129.232 42.348 128.884C41.9374 128.366 41.9536 127.607 42.216 127C42.4784 126.393 42.947 125.903 43.4059 125.427C43.2744 125.156 42.8907 125.137 42.6035 125.228ZM46.1104 126.404C46.523 125.451 46.5379 124.373 46.4334 123.339C46.3179 122.196 45.9195 120.889 44.8424 120.488C43.2643 121.143 42.0464 122.604 41.6867 124.275C41.6566 124.415 41.6328 124.566 41.688 124.699C41.7432 124.831 41.9072 124.928 42.0344 124.861C42.4707 124.633 43.0075 124.503 43.451 124.717C43.8944 124.931 44.1104 125.6 43.7512 125.937C43.3544 126.309 42.947 126.697 42.7328 127.197C42.5187 127.697 42.5496 128.345 42.9528 128.711C43.2555 128.986 43.2563 129.525 42.9542 129.801C43.8131 129.55 44.4254 128.811 44.9822 128.111C45.408 127.576 45.8387 127.032 46.1104 126.404ZM36.2222 121.473C35.3288 121.844 34.4614 122.278 33.6291 122.771C33.431 122.888 33.231 123.012 33.0862 123.19C32.8907 123.432 32.8163 123.747 32.756 124.052C32.5608 125.036 32.4603 126.096 32.8736 127.01C33.0056 127.302 33.1859 127.569 33.3654 127.834C33.4184 127.913 33.4784 127.996 33.5694 128.023C33.66 128.049 33.78 127.976 33.7587 127.884C33.6931 127.6 33.908 127.333 34.12 127.133C35.3627 125.964 37.0366 125.292 38.1542 124.003C37.9846 123.802 37.663 123.896 37.4214 123.999C36.8456 124.245 36.252 124.449 35.647 124.608C35.3347 124.691 34.9867 124.758 34.7019 124.606C34.2848 124.384 34.2171 123.775 34.4374 123.357C34.6576 122.939 35.0763 122.669 35.48 122.424C35.8838 122.179 36.3075 121.922 36.5499 121.517C36.5056 121.401 36.3366 121.426 36.2222 121.473ZM39.2803 129.309C39.675 128.991 40.1016 128.617 40.1448 128.112C40.1672 127.849 39.9982 127.526 39.7344 127.551C39.6534 127.559 39.5792 127.599 39.5094 127.641C38.3611 128.327 37.6056 129.668 36.3102 130.001C36.6763 130.165 37.0579 130.294 37.4483 130.386C37.5646 130.413 37.6856 130.437 37.8024 130.413C37.9387 130.385 38.0526 130.295 38.1608 130.208C38.5339 129.908 38.907 129.608 39.2803 129.309ZM40.348 118.343C40.0926 118.625 39.8371 118.908 39.5816 119.191C39.3792 119.415 39.1619 119.71 39.2747 119.99C39.3576 120.196 39.6027 120.3 39.8243 120.283C40.0462 120.266 40.248 120.153 40.4339 120.031C41.0963 119.596 41.6926 119.004 42.4656 118.83C41.9296 118.635 41.3936 118.44 40.8576 118.244C40.7462 118.204 40.6216 118.163 40.5118 118.208C40.4459 118.236 40.3958 118.29 40.348 118.343Z" fill="#00160A"/>
<path fill-rule="evenodd" clip-rule="evenodd" d="M50.3222 84.5863C50.2553 85.9252 49.2222 87.3754 47.8907 87.217C47.2897 86.522 46.8195 85.6594 46.3547 84.8068C45.4619 83.1695 44.5897 81.5695 42.8516 81.2658C41.1444 80.9674 39.5545 82.2231 38.4913 83.5916C36.9516 85.5735 35.9564 87.9746 35.6428 90.4647C35.4582 91.929 36.0588 93.9591 37.5254 93.798C39.2009 93.614 40.3924 94.9319 41.6044 96.2724C42.726 97.513 43.8649 98.773 45.4214 98.8791C47.2745 99.0058 48.7881 100.116 50.3203 101.24C51.3438 101.99 52.3755 102.747 53.5222 103.221C55.679 104.112 58.1665 103.94 60.3681 103.166C62.5699 102.392 64.5294 101.059 66.3838 99.6418L66.4811 99.5674C67.4934 98.7932 68.5531 97.9828 69.8118 97.8122C76.2486 96.9402 82.2355 93.1647 85.7963 87.7322C90.8446 91.7676 97.9027 93.1468 104.099 91.3087C105.15 90.9967 106.208 90.5786 106.988 89.8074C107.767 89.0362 108.209 87.8388 107.826 86.8114C107.407 85.6876 106.155 85.086 104.964 84.9415C104.312 84.862 103.654 84.8855 102.996 84.909H102.996C102.453 84.9284 101.91 84.9476 101.37 84.9095C98.0971 84.678 95.3718 82.4207 92.8937 80.2703C96.4843 79.169 99.3955 76.4026 101.318 73.1762C103.24 69.9495 104.27 66.274 105.053 62.6007C105.465 60.6676 105.771 58.49 104.666 56.8511C104.172 56.1175 103.447 55.581 102.725 55.0466C101.912 54.4447 101.102 53.8452 100.628 52.9692C99.7158 51.2839 97.9382 50.2847 96.2521 49.3743C91.8398 46.9921 86.7718 44.5404 82.0166 46.1314C80.1643 46.7511 78.5643 47.9385 77.0043 49.1137C74.4137 51.0652 71.6385 53.3546 71.1451 56.5604C66.9065 54.6639 61.4225 56.1786 58.7577 59.9815C58.1481 60.8514 57.6803 61.8106 57.2129 62.769C56.6625 63.8972 56.1129 65.0239 55.3337 66.002C52.2035 64.5759 49.0145 63.2796 45.7774 62.1178C44.3422 61.6026 42.6276 61.1471 41.3908 62.0391C40.399 62.7543 40.0948 64.1578 40.386 65.3452C40.6769 66.533 41.4542 67.5396 42.2875 68.4343C44.0955 70.3751 46.2675 71.9759 48.6566 73.1284C48.7337 73.1658 48.8113 73.2028 48.8891 73.2399C49.6371 73.5962 50.4062 73.9626 50.9043 74.6167C51.4542 75.3388 51.4883 76.5474 50.7174 77.0266C49.5787 77.7343 49.3689 79.3226 49.6025 80.6428C49.6822 81.094 49.7993 81.541 49.9161 81.9871C50.1414 82.8471 50.3662 83.7047 50.3222 84.5863ZM81.239 91.6466C78.3694 94.6596 74.3315 96.4223 70.2027 96.9378C66.0739 97.453 61.8579 96.7831 57.9139 95.4575C58.975 95.457 59.7419 94.0679 59.1777 93.1695C57.0041 95.7034 53.6902 96.8903 50.5326 97.9738C47.6798 98.953 44.2699 98.2418 42.1745 96.0727C40.079 93.9034 39.5121 90.3442 40.9857 87.7124C41.6262 86.5687 42.7126 85.573 44.0188 85.4607C45.3249 85.3484 46.7316 86.4316 46.6102 87.737C45.8836 87.6106 45.1185 88.2279 45.0886 88.965C47.9006 88.6623 50.5441 87.0508 52.1017 84.6906C52.6393 83.8756 53.0481 82.9884 53.4569 82.1002C53.7315 81.5039 54.0062 80.9071 54.3203 80.3319C55.1022 78.8999 56.2246 77.5348 57.7803 77.0426C59.0289 76.6479 60.3785 76.8668 61.6689 77.0895L67.4014 78.0778C67.8305 77.7074 67.1355 77.1138 66.5809 76.998C64.7891 76.6236 62.9723 76.393 61.1555 76.162C59.471 75.9482 57.7859 75.7343 56.1209 75.4058C52.6598 74.7228 49.1811 73.4738 46.6622 71.0044C48.371 70.0212 49.671 68.3508 50.2043 66.4532C50.3123 66.0692 50.0553 65.4386 49.7433 65.6871C49.3873 66.9191 49.0012 68.2042 48.1086 69.125C47.2161 70.046 45.6494 70.4506 44.6393 69.6604C43.3278 68.6348 41.9492 67.5159 41.4305 65.934C40.9118 64.3519 41.7324 62.2274 43.3857 62.0332C44.1281 61.9463 44.8534 62.253 45.538 62.553L52.4427 65.5796C54.4977 66.4804 56.5835 67.3903 58.8033 67.7172C60.3619 67.9466 61.9473 67.8823 63.5211 67.8172L67.9838 67.6332C68.1662 67.6258 68.3534 67.6172 68.5214 67.5455C68.9697 67.3543 69.1217 66.8066 69.2206 66.3295C70.4182 60.5508 72.027 54.4527 76.3798 50.4676C78.3275 48.6844 80.7539 47.4289 83.3345 46.8689C85.8782 46.3169 88.6849 46.4791 90.8747 47.886C87.2011 48.1564 83.6337 49.7057 80.9283 52.2058C79.7915 50.9921 77.6758 51.9842 76.7691 53.3778C75.3638 55.5383 75.3891 58.5396 76.8313 60.6762C78.0451 62.4743 78.4953 64.6199 78.9465 66.7706C79.3611 68.7471 79.7766 70.7279 80.7865 72.4471C82.3843 75.1668 85.3598 76.9124 88.4673 77.4538C91.575 77.9948 94.7966 77.4295 97.7499 76.322C94.4443 79.6191 89.1638 80.7596 84.7923 79.1204C84.4737 79.001 84.1566 78.8676 83.8395 78.734L83.8393 78.7338C82.8347 78.3108 81.8267 77.8863 80.7494 77.8991C81.3806 78.5674 82.1867 79.0692 83.0651 79.3404C82.0523 81.0418 80.9897 82.7132 79.879 84.3524C79.7369 84.562 79.575 84.7855 79.3318 84.8564C79.0609 84.9354 78.7782 84.8004 78.531 84.6639C76.4891 83.5354 74.6587 82.025 73.163 80.2346L70.1705 83.8746C71.7062 85.7519 73.5014 87.4162 75.4894 88.8055C72.8435 92.074 68.835 94.2031 64.6451 94.565C68.9822 94.7858 73.3726 92.7516 76.0083 89.3002C77.6769 90.237 79.4297 91.0234 81.239 91.6466ZM94.9545 59.6388C95.9126 58.5938 96.2678 57.1012 96.1859 55.6858C96.1041 54.2703 95.6281 52.9089 95.1011 51.5924C96.4737 51.4297 97.8683 51.9476 98.9619 52.7935C100.056 53.6391 100.877 54.7898 101.55 55.997C102.367 57.4602 102.993 59.0423 103.265 60.6959C103.905 64.5895 102.539 68.5591 100.595 71.9927C100.217 72.6594 99.811 73.3215 99.2598 73.8535C98.7049 74.3895 98.0222 74.7748 97.3227 75.0999C94.4355 76.4412 91.1147 76.8284 87.9966 76.1868C89.987 74.5298 91.3929 72.2466 92.2881 69.8162C93.1833 67.3858 93.5931 64.8026 93.8291 62.2234L93.8305 62.209C93.8899 61.5586 93.9523 60.8748 94.323 60.3378C94.4459 60.1599 94.5977 60.0058 94.7497 59.8516C94.8187 59.7815 94.8881 59.7111 94.9545 59.6388ZM91.3523 70.3818C90.4934 72.3908 89.1627 74.2356 87.3587 75.4684C87.1475 75.613 86.9206 75.7522 86.6665 75.782C86.4422 75.8082 86.2174 75.7463 86.0019 75.6783C84.4683 75.1943 83.019 74.3362 82.0353 73.0639C81.6782 72.6023 81.3867 72.093 81.1267 71.5706C79.2329 67.7652 79.0473 63.1482 80.6297 59.2031C80.7054 59.0148 80.8134 58.8031 81.0126 58.7636C81.2702 58.7124 81.4678 58.9762 81.6126 59.1951C82.7945 60.9863 85.0049 61.8932 87.1489 61.9871C89.2929 62.081 91.4019 61.4716 93.435 60.7844C93.0646 61.6906 92.9702 62.6775 92.8766 63.6554V63.6567L92.8763 63.658C92.8649 63.7802 92.8531 63.9023 92.8409 64.0242C92.623 66.1983 92.2113 68.3727 91.3523 70.3818ZM90.9158 51.7172C92.0129 51.4676 93.2929 51.3991 94.1313 52.1495C94.4019 52.3919 94.603 52.7028 94.7686 53.0263C95.807 55.0554 95.4003 57.7276 93.8054 59.3562C91.9617 61.2386 89.0435 61.5487 86.4182 61.3255C85.4761 61.2452 84.5073 61.1002 83.703 60.6031C82.6625 59.9599 82.0462 58.8266 81.4763 57.7439C84.0062 54.9172 87.2166 52.558 90.9158 51.7172ZM99.7889 85.8418C99.4446 86.7108 99.0971 87.5916 98.9843 88.5196C98.8718 89.4476 99.0185 90.4434 99.5827 91.1887C94.8993 91.4476 90.1401 90.0036 86.3905 87.1855C87.5995 85.4743 88.5545 83.5839 89.2139 81.5951C89.4747 80.8098 90.4691 80.482 91.2766 80.6639C92.0201 80.8314 92.6441 81.3082 93.2529 81.7732L93.3275 81.8303C93.355 81.8511 93.3825 81.8722 93.4099 81.893C95.4035 83.4066 97.6003 84.6268 99.7889 85.8418ZM67.0622 97.71C66.3235 98.5418 65.4409 99.2319 64.539 99.8831C62.6569 101.242 60.6043 102.477 58.3166 102.872C54.9641 103.451 51.3419 102.005 49.3094 99.2762L56.6222 96.5484C56.7971 96.4831 56.9785 96.4167 57.1651 96.4274C57.2705 96.4332 57.3718 96.4636 57.4734 96.4938C57.5411 96.514 57.6089 96.534 57.6779 96.5474C57.9126 96.5916 58.1494 96.5527 58.3873 96.5135C58.5353 96.4892 58.6838 96.4647 58.8323 96.4602C59.3798 96.4439 59.8827 96.694 60.3806 96.9415C60.5067 97.0042 60.6329 97.0668 60.7593 97.125C62.6982 98.0167 64.9339 97.8724 67.0622 97.71ZM56.5035 66.4226C56.4521 66.3071 56.5065 66.1746 56.5609 66.0607C58.0585 62.9242 60.0395 60.0191 62.4126 57.4799C64.0819 59.7978 65.1929 62.5146 65.6257 65.338C65.7123 65.9023 65.6187 66.6828 65.0521 66.7532C62.3366 67.0919 59.5734 67.0458 56.8705 66.6172C56.7275 66.5946 56.5627 66.5546 56.5035 66.4226ZM66.7315 66.229C66.1723 63.1548 65.0115 60.1916 63.3342 57.5556C64.7539 56.8082 66.4326 56.7959 68.0371 56.801C69.0505 56.8042 70.1566 56.8396 70.9289 57.4959L68.9257 63.4066C68.5857 64.41 68.2411 65.4418 68.2841 66.5004L67.0179 66.5207C66.9726 66.5215 66.9262 66.5218 66.8846 66.5044C66.7833 66.462 66.7513 66.337 66.7315 66.229ZM83.0246 81.3554C83.3609 80.7831 83.6814 80.1719 83.7155 79.509C85.2305 80.1903 86.899 80.5279 88.5595 80.4892C88.8203 80.4831 88.811 80.885 88.7041 81.1228C88.3809 81.8426 88.0571 82.5631 87.6827 83.2578C87.2987 83.9708 86.8627 84.6543 86.427 85.337L85.383 86.9735C85.2401 87.1975 85.0926 87.4266 84.8803 87.5863C84.3102 88.0148 83.4969 87.8087 82.8465 87.5164C81.7678 87.0319 80.7747 86.357 79.9273 85.5319C81.1043 84.2551 82.1446 82.8524 83.0246 81.3554ZM43.847 82.7692C44.3489 83.2754 44.6772 83.9242 44.9969 84.5612L43.491 84.7759C42.9891 84.8474 42.4748 84.9231 42.0313 85.1684C41.5998 85.4071 41.267 85.79 40.9742 86.1866C39.7494 87.8458 39.0705 89.9012 39.0662 91.9636C39.0649 92.7084 38.1844 93.2399 37.4638 93.0511C36.7433 92.8623 36.2537 92.1466 36.1292 91.4122C36.0046 90.6778 36.1801 89.9268 36.4001 89.2151C37.1742 86.7108 38.5593 84.3455 40.6081 82.7106C40.9998 82.3983 41.4324 82.1058 41.9268 82.0268C42.6308 81.9143 43.3452 82.2631 43.847 82.7692ZM107.085 86.9615C107.259 87.1852 107.388 87.4578 107.381 87.7415C107.37 88.1076 107.138 88.429 106.888 88.697C105.434 90.2548 103.2 90.7852 101.084 91.0351C100.945 91.0516 100.799 91.0666 100.668 91.0154C100.56 90.9732 100.474 90.8906 100.397 90.8042C99.8867 90.23 99.6846 89.4276 99.7259 88.6604C99.7673 87.8932 100.032 87.1543 100.362 86.4604C100.431 86.3143 100.512 86.1607 100.653 86.0823C100.766 86.0199 100.901 86.0148 101.03 86.0116L103.591 85.9444C104.221 85.9279 104.859 85.9119 105.476 86.042C106.093 86.1719 106.698 86.4639 107.085 86.9615ZM78.5446 62.7644C77.5009 60.8311 76.7203 58.7562 76.2307 56.6143L76.6521 55.4882C77.1737 54.4786 77.8313 53.5391 78.6011 52.7034C78.915 52.3631 79.4585 52.3252 79.8913 52.4892C80.3241 52.6532 80.6723 52.9794 81.0083 53.2978L82.5203 54.7303C82.5651 54.773 82.6121 54.8188 82.6273 54.8788C82.6553 54.9919 82.5619 55.0956 82.4774 55.1759C81.7694 55.849 81.1403 56.6082 80.6358 57.4447C79.8734 58.7092 79.4078 60.1266 78.9486 61.5298L78.5446 62.7644ZM82.4086 51.9055C85.487 50.2567 88.8542 48.7052 92.3267 49.0764C94.1419 49.2703 95.8785 49.9924 97.3907 51.0156C93.059 49.902 88.2305 50.9292 84.727 53.7092C84.1854 54.1391 83.3729 54.6058 82.8907 54.1103C82.767 53.9831 82.6862 53.805 82.6073 53.6311C82.4809 53.3532 82.3598 53.0868 82.0769 53.0607C81.807 53.0359 81.6867 52.6695 81.8014 52.4239C81.9158 52.178 82.1697 52.0335 82.4086 51.9055ZM73.9518 82.0618C74.5595 82.6458 75.2286 83.161 75.8961 83.6751L78.5931 85.7524C77.7627 86.4844 76.9499 87.2367 76.1563 88.0084C74.2667 86.8884 72.5801 85.4271 71.2025 83.7164C71.9566 82.9308 72.6806 82.1164 73.3721 81.2754C73.4809 81.5858 73.7147 81.834 73.9518 82.0618ZM56.611 76.4434C55.1907 77.5527 53.7225 78.7204 52.9414 80.3444C52.7889 80.6618 52.6627 80.9959 52.5369 81.3292C52.2691 82.038 52.0025 82.7444 51.4838 83.2839C51.2537 83.2164 51.1633 82.9452 51.1073 82.7122L50.5667 80.4644C50.4939 80.1612 50.4206 79.8495 50.4619 79.5404C50.5033 79.2327 50.655 78.9524 50.8038 78.6799L52.3894 75.7826C52.4249 75.718 52.4614 75.6516 52.5182 75.6047C52.6585 75.4882 52.8659 75.5252 53.043 75.5687L56.611 76.4434ZM79.6811 86.3967C80.6494 87.3924 81.8531 88.158 83.1654 88.6127C83.411 88.3818 83.8851 88.509 83.9819 88.8319C83.5305 89.4178 83.0347 89.9698 82.5001 90.4812C82.2617 90.7098 81.8793 90.6615 81.5571 90.5876C79.9843 90.2266 78.4694 89.6148 77.0867 88.7826C76.9945 88.7268 76.8902 88.6476 76.8995 88.5399C76.9057 88.4676 76.9625 88.4114 77.0161 88.3623L78.9571 86.5746C79.1606 86.3871 79.4881 86.1983 79.6811 86.3967ZM104.463 61.4234C104.445 61.6423 104.414 61.8868 104.243 62.0247C104.242 60.3039 103.815 58.5852 103.012 57.0634C102.866 56.7876 102.708 56.5178 102.532 56.2599C102.509 56.2266 102.486 56.1935 102.464 56.1602C102.286 55.9042 102.105 55.6423 102.062 55.3367L104.142 57.5095C104.333 57.7095 104.53 57.918 104.62 58.1796C104.708 58.4319 104.687 58.7068 104.665 58.973L104.463 61.4234ZM102.073 58.662L101.602 58.0684C101.084 57.4151 100.449 56.702 99.6147 56.701C99.1307 56.7004 98.6859 56.9484 98.2659 57.189L97.6139 57.5631C97.4358 57.6652 97.2529 57.7714 97.1273 57.934C96.7649 58.4026 97.0291 59.0874 97.3715 59.5706C97.6086 59.905 97.8926 60.226 98.2694 60.3871C98.7569 60.5954 99.3177 60.5031 99.8289 60.3623C100.529 60.1692 101.205 59.8908 101.838 59.5351C102.04 59.4212 102.264 59.2546 102.253 59.0228C102.247 58.8863 102.158 58.7692 102.073 58.662ZM97.9585 59.1204C97.8774 58.9914 97.7937 58.8535 97.7923 58.701C97.7899 58.4031 98.0873 58.2031 98.3489 58.0604L99.2785 57.5535C99.419 57.4767 99.5651 57.3983 99.7251 57.3876C99.8849 57.3767 100.062 57.4538 100.116 57.6044C100.275 58.0498 100.665 58.4047 101.124 58.5202C101.272 58.5578 101.32 58.7631 101.249 58.8991C101.179 59.0351 101.036 59.1146 100.899 59.1826C100.409 59.4255 99.8966 59.6239 99.3705 59.774C99.1595 59.834 98.9363 59.8868 98.723 59.8359C98.3742 59.753 98.1494 59.4239 97.9585 59.1204ZM91.3454 63.71C90.4233 63.8172 90.2478 65.4796 90.6761 66.3663C90.7641 66.5487 90.9019 66.7367 91.103 66.762C91.4465 66.8058 91.6363 66.3818 91.7123 66.0439L91.7142 66.0359C91.8145 65.5906 92.2617 63.6031 91.3454 63.71ZM86.5902 65.8906C86.7745 65.4607 86.8361 64.9786 86.7657 64.5162C86.7329 64.3012 86.6681 64.0828 86.5246 63.9196C86.3809 63.7564 86.1435 63.6615 85.939 63.7351C85.7539 63.8018 85.6374 63.9828 85.5499 64.1591C85.2403 64.781 85.1171 65.494 85.1998 66.1836C85.2382 66.5044 85.6425 66.6799 85.9491 66.5783C86.2561 66.477 86.463 66.1876 86.5902 65.8906ZM89.3083 64.9063C89.4513 64.7879 89.6318 65.0031 89.6899 65.1799C89.8809 65.7602 90.039 66.3514 90.163 66.9495C90.2417 67.3274 90.3065 67.7202 90.2227 68.097C90.1049 68.6284 89.7009 69.0607 89.2323 69.3375C88.7635 69.6143 88.2302 69.7578 87.7043 69.898C87.5654 69.9351 87.3907 69.9615 87.3009 69.849C87.2249 69.7538 87.2625 69.6044 87.3491 69.5183C87.4342 69.4343 87.5526 69.3954 87.6665 69.358L87.6731 69.3556C88.4931 69.0863 89.3691 68.6002 89.5601 67.7586C89.6651 67.2959 89.5374 66.8311 89.4091 66.3642C89.2923 65.9388 89.175 65.5122 89.2329 65.0839C89.2417 65.0186 89.2574 64.9484 89.3083 64.9063ZM83.5825 63.0135C83.3665 62.7143 83.5395 62.2599 83.8526 62.065C84.1657 61.8698 84.5614 61.8724 84.9273 61.9196C85.3638 61.9762 85.7934 62.0871 86.2027 62.2495C86.2899 62.2842 86.3838 62.3282 86.4222 62.4138C86.4931 62.5722 86.3094 62.7455 86.1358 62.7452C85.9961 62.7452 85.8694 62.678 85.7441 62.6114C85.7137 62.5954 85.6835 62.5794 85.6531 62.5642C84.9699 62.2252 84.0638 62.4218 83.5825 63.0135ZM91.4577 62.9103C91.7825 62.8564 92.1267 62.9314 92.3995 63.1154C92.5137 63.1924 92.6769 63.0631 92.6777 62.9255C92.6782 62.7879 92.5755 62.6722 92.4675 62.5871C92.2345 62.4036 91.9446 62.294 91.6486 62.2775C91.4577 62.2666 91.2465 62.3036 91.1233 62.45C91.0003 62.5964 91.0374 62.8714 91.2219 62.9223C91.2875 62.9407 91.3566 62.9282 91.4246 62.9162C91.4355 62.9143 91.4467 62.9122 91.4577 62.9103ZM87.4278 71.3471C87.519 71.2954 87.6398 71.3855 87.6534 71.4895C87.667 71.5935 87.6075 71.6932 87.5398 71.7732C87.1993 72.1751 86.6126 72.2988 86.0945 72.2044C85.5763 72.1103 85.1118 71.8319 84.6747 71.538C84.4694 71.3999 84.2667 71.257 84.0675 71.11C83.8611 70.9575 83.6411 70.7708 83.6163 70.5154C83.5918 70.2599 83.919 70.0023 84.1059 70.1783C84.5651 70.6108 85.035 71.0506 85.6062 71.318C86.1777 71.5858 86.8782 71.657 87.4278 71.3471ZM77.5921 73.3956C75.6785 69.2356 74.8801 64.5687 75.3019 60.0092C75.3091 59.9314 75.319 59.8479 75.3705 59.789C75.4433 59.7058 75.5921 59.7092 75.6609 59.7956C75.6363 62.3039 75.6129 64.8271 76.0225 67.3018C76.4318 69.7764 77.3011 72.2247 78.8886 74.1668C78.9361 74.225 78.9841 74.2826 79.0323 74.3404C79.3054 74.6679 79.5809 74.998 79.7355 75.393C78.7033 75.373 78.0235 74.3335 77.5921 73.3956ZM79.4691 54.6108C79.4339 54.5724 79.3926 54.5388 79.3449 54.518C79.2067 54.4586 79.0451 54.5196 78.9241 54.609C78.4425 54.9655 78.4406 55.7994 78.9206 56.1583C79.155 55.9586 79.3953 55.7514 79.5326 55.4759C79.6697 55.2007 79.6782 54.8367 79.4691 54.6108ZM83.6227 59.0036C84.1419 59.4252 84.7334 59.7572 85.3638 59.9807C87.3977 60.7018 89.683 60.249 91.6457 59.3519C91.9454 59.2148 92.3281 59.2871 92.5574 59.5242C91.2971 60.422 89.7534 60.9156 88.2059 60.9154C87.8649 60.9154 87.5241 60.8919 87.1841 60.862C86.4883 60.8015 85.7875 60.7122 85.1334 60.4687C84.479 60.225 83.8681 59.813 83.4977 59.2212L83.6227 59.0036ZM105.77 86.4138C105.749 86.4831 105.805 86.5492 105.856 86.6002L106.629 87.3671C106.713 87.1466 106.619 86.8898 106.457 86.718C106.295 86.5463 106.076 86.442 105.862 86.3412C105.82 86.3431 105.781 86.3738 105.77 86.4138Z" fill="#00160A"/>
<path fill-rule="evenodd" clip-rule="evenodd" d="M156.52 56.5844C157.467 56.9124 158.358 56.0586 159.174 55.477C160.436 54.577 162.083 54.2367 163.599 54.5626C163.85 54.6167 164.114 54.6978 164.279 54.8946C164.431 55.0746 164.474 55.3199 164.498 55.554C164.647 56.9858 164.289 58.4652 163.502 59.6703C163.119 60.2567 162.639 60.7786 162.296 61.3895C161.954 62.0004 161.758 62.7466 162.002 63.4031C163.453 67.3058 162.849 71.909 160.441 75.3055C158.033 78.7018 153.889 80.7948 149.726 80.717C147.597 80.677 145.511 80.1087 143.505 79.3943C142.63 79.0823 141.668 78.7404 140.799 79.0695C139.214 79.6703 137.545 80.0498 135.856 80.1932C135.436 80.229 134.999 80.2471 134.612 80.0818C134.033 79.834 133.683 79.2063 133.617 78.5799C133.551 77.9538 133.724 77.3271 133.942 76.7364C134.602 74.9551 136.649 72.1724 137.889 71.5314C137.789 69.3682 137.8 67.1796 138.268 65.0655C138.735 62.9511 139.69 60.8994 141.255 59.4034C141.902 58.7855 142.642 58.2711 143.417 57.8247C147.338 55.5674 152.245 55.1028 156.52 56.5844ZM150.549 56.4087C147.551 56.4788 144.633 57.6831 142.289 59.5543C141.601 60.1036 140.955 60.7138 140.438 61.4268C140.031 61.989 139.709 62.6092 139.44 63.2492C137.844 67.0458 138.208 71.6074 140.387 75.1023C140.434 75.1786 140.489 75.2594 140.573 75.289C140.678 75.3255 140.791 75.2722 140.888 75.2202C147.732 71.5735 153.823 66.5226 158.673 60.473C158.789 60.329 158.91 60.1615 158.885 59.9786C158.867 59.8412 158.769 59.7298 158.673 59.6295C156.603 57.4596 153.547 56.3386 150.549 56.4087ZM154.741 79.0732C157.991 77.5471 160.46 74.5319 161.515 71.0999C161.755 70.3228 161.926 69.5194 161.943 68.7066C161.957 68.0228 161.862 67.3423 161.767 66.6652C161.629 65.6836 161.491 64.702 161.353 63.7202C161.316 63.4599 161.066 63.1164 160.882 63.305C155.797 68.5386 150.244 73.3175 144.311 77.5663C144.113 77.7076 143.896 77.8826 143.885 78.1252C143.873 78.406 144.141 78.6095 144.385 78.75C147.495 80.5436 151.491 80.5991 154.741 79.0732ZM134.692 78.6735C134.929 79.0527 135.441 79.1306 135.888 79.1428C138.232 79.2076 140.551 78.521 142.648 77.4719C144.745 76.4231 146.643 75.0199 148.487 73.5722C150.947 71.6415 153.334 69.6178 155.66 67.5274C158.54 64.9383 161.371 62.1922 163.262 58.8122C163.628 58.1583 163.966 57.4415 163.908 56.6943C163.851 55.9474 163.255 55.1932 162.507 55.2226C160.918 55.2844 159.356 55.8954 158.147 56.9274C157.906 57.1327 158.076 57.5695 158.372 57.6807C158.668 57.7919 158.998 57.6815 159.288 57.5538C159.577 57.426 159.878 57.2767 160.192 57.3116C160.672 57.365 161.013 57.8564 161.042 58.3386C161.07 58.821 160.857 59.2842 160.606 59.6967C160.141 60.4602 159.534 61.1258 158.92 61.7759C153.466 67.5543 147.174 72.5407 140.303 76.5311C139.684 76.8906 139.058 77.2431 138.392 77.5047C138.043 77.642 137.642 77.7524 137.301 77.5954C136.742 77.3378 136.697 76.553 136.865 75.9607C137.117 75.0716 137.661 74.2679 138.393 73.7039C138.254 73.3132 138.116 72.9226 137.977 72.5322C136.17 73.686 134.902 75.6492 134.593 77.7706C134.549 78.0767 134.528 78.4111 134.692 78.6735ZM139.829 75.9932C139.842 75.953 139.819 75.9108 139.796 75.8751C139.563 75.5042 139.329 75.1335 139.096 74.7626C138.991 74.5948 138.786 74.4047 138.628 74.5239C138.057 74.9538 137.649 75.5938 137.499 76.2922C137.47 76.43 137.453 76.5839 137.528 76.7031C137.667 76.925 138.001 76.8756 138.248 76.7871C138.774 76.5986 139.281 76.3562 139.758 76.0647C139.788 76.0468 139.819 76.026 139.829 75.9932ZM160.134 58.3399C160.11 58.2434 159.996 58.2015 159.896 58.1972C159.596 58.1842 159.281 58.4314 159.301 58.7319C159.32 59.0322 159.766 59.2215 159.953 58.9852C160.009 58.9138 160.033 58.8228 160.055 58.7348C160.077 58.6476 160.1 58.5604 160.122 58.4732C160.133 58.4295 160.144 58.3836 160.134 58.3399Z" fill="#00160A"/>
</svg>
